<mxfile host="app.diagrams.net" agent="Mozilla/5.0 (Macintosh; Intel Mac OS X 10_15_7) AppleWebKit/605.1.15 (KHTML, like Gecko) Version/18.5 Safari/605.1.15" version="27.1.1">
  <diagram name="Page-1" id="hRr5kimbQxW6g2onVM2X">
    <mxGraphModel dx="851" dy="574" grid="1" gridSize="1" guides="1" tooltips="1" connect="1" arrows="1" fold="1" page="1" pageScale="1" pageWidth="850" pageHeight="1100" math="0" shadow="0" adaptiveColors="auto">
      <root>
        <mxCell id="0" />
        <mxCell id="1" parent="0" />
        <mxCell id="ILlvKbUS54B9NnVb6DW4-14" value="&lt;u&gt;&lt;b&gt;Quadrant 1 - Lifestyle heavy&amp;nbsp;&lt;/b&gt;&lt;/u&gt;&lt;u&gt;&lt;b&gt;(n=49)&lt;/b&gt;&lt;/u&gt;&lt;div&gt;&lt;div&gt;&lt;u&gt;&lt;br&gt;&lt;/u&gt;&lt;/div&gt;&lt;div&gt;&lt;div style=&quot;text-align: left;&quot;&gt;&lt;b&gt;Account setup:&lt;/b&gt;&lt;/div&gt;&lt;div style=&quot;text-align: left;&quot;&gt;# News Follows = 2&lt;/div&gt;&lt;div&gt;&lt;div style=&quot;text-align: left;&quot;&gt;# Lifestyle Follows = 10&lt;/div&gt;&lt;div style=&quot;text-align: left;&quot;&gt;&lt;br&gt;&lt;/div&gt;&lt;div style=&quot;text-align: left;&quot;&gt;&lt;b&gt;Viewing protocol:&lt;/b&gt;&lt;/div&gt;&lt;div style=&quot;text-align: left;&quot;&gt;P&lt;sub&gt;watch&lt;/sub&gt;(1, News) = 0.05&lt;br&gt;&lt;/div&gt;&lt;/div&gt;&lt;div style=&quot;text-align: left;&quot;&gt;P&lt;sub&gt;watch&lt;/sub&gt;(1,&amp;nbsp;&lt;span&gt;¬&lt;/span&gt;News) = 0.95&lt;/div&gt;&lt;/div&gt;&lt;/div&gt;" style="rounded=0;whiteSpace=wrap;html=1;fillColor=#A6CEE3;strokeColor=none;fontColor=#000000;fontFamily=Times New Roman;fontSize=14;" parent="1" vertex="1">
          <mxGeometry x="17" y="20" width="268" height="164" as="geometry" />
        </mxCell>
        <mxCell id="ILlvKbUS54B9NnVb6DW4-15" value="&lt;u style=&quot;caret-color: rgb(247, 247, 247);&quot;&gt;&lt;b&gt;Quadrant 2 - Balanced (n=48)&lt;/b&gt;&lt;/u&gt;&lt;div style=&quot;caret-color: rgb(247, 247, 247);&quot;&gt;&lt;u&gt;&lt;br&gt;&lt;/u&gt;&lt;/div&gt;&lt;div style=&quot;caret-color: rgb(247, 247, 247);&quot;&gt;&lt;div style=&quot;text-align: left;&quot;&gt;&lt;b&gt;Account setup:&lt;/b&gt;&lt;/div&gt;&lt;div style=&quot;text-align: left;&quot;&gt;&lt;span&gt;# News Follows = 6&lt;/span&gt;&lt;/div&gt;&lt;div&gt;&lt;div style=&quot;text-align: left;&quot;&gt;&lt;span&gt;# Lifestyle Follows = 6&amp;nbsp;&lt;/span&gt;&lt;/div&gt;&lt;div style=&quot;text-align: left;&quot;&gt;&lt;span&gt;&lt;br&gt;&lt;/span&gt;&lt;/div&gt;&lt;div style=&quot;text-align: left;&quot;&gt;&lt;b&gt;Viewing protocol:&lt;/b&gt;&lt;/div&gt;&lt;div style=&quot;text-align: left;&quot;&gt;&lt;span style=&quot;caret-color: rgb(247, 247, 247);&quot;&gt;P&lt;/span&gt;&lt;sub style=&quot;caret-color: rgb(247, 247, 247);&quot;&gt;watch&lt;/sub&gt;(2, News) =&amp;nbsp;0.5&lt;br&gt;&lt;/div&gt;&lt;/div&gt;&lt;div style=&quot;text-align: left;&quot;&gt;&lt;span style=&quot;caret-color: rgb(247, 247, 247);&quot;&gt;P&lt;/span&gt;&lt;sub style=&quot;caret-color: rgb(247, 247, 247);&quot;&gt;watch&lt;/sub&gt;&lt;span&gt;(2,&amp;nbsp;¬News) = 0.5&lt;/span&gt;&lt;/div&gt;&lt;/div&gt;" style="rounded=0;whiteSpace=wrap;html=1;fillColor=#B2DF8A;strokeColor=none;fontColor=#000000;fontFamily=Times New Roman;fontSize=14;" parent="1" vertex="1">
          <mxGeometry x="284" y="20" width="268" height="164" as="geometry" />
        </mxCell>
        <mxCell id="ILlvKbUS54B9NnVb6DW4-16" value="&lt;u style=&quot;caret-color: rgb(247, 247, 247);&quot;&gt;&lt;b&gt;Quadrant 3 - Disengaged (n=55)&lt;/b&gt;&lt;/u&gt;&lt;div style=&quot;caret-color: rgb(247, 247, 247);&quot;&gt;&lt;u&gt;&lt;br&gt;&lt;/u&gt;&lt;/div&gt;&lt;div style=&quot;caret-color: rgb(247, 247, 247);&quot;&gt;&lt;div style=&quot;text-align: left;&quot;&gt;&lt;b&gt;Account setup:&lt;/b&gt;&lt;/div&gt;&lt;div style=&quot;text-align: left;&quot;&gt;# News Follows = 0&lt;/div&gt;&lt;div&gt;&lt;div style=&quot;text-align: left;&quot;&gt;# Lifestyle Follows = 0&lt;/div&gt;&lt;div style=&quot;text-align: left;&quot;&gt;&lt;br&gt;&lt;/div&gt;&lt;div style=&quot;text-align: left;&quot;&gt;&lt;b&gt;Viewing protocol:&lt;/b&gt;&lt;/div&gt;&lt;div style=&quot;text-align: left;&quot;&gt;&lt;span style=&quot;caret-color: rgb(247, 247, 247);&quot;&gt;P&lt;/span&gt;&lt;sub style=&quot;caret-color: rgb(247, 247, 247);&quot;&gt;watch&lt;/sub&gt;(3, News) = 0.05&lt;br&gt;&lt;/div&gt;&lt;/div&gt;&lt;div style=&quot;text-align: left;&quot;&gt;&lt;span style=&quot;caret-color: rgb(247, 247, 247);&quot;&gt;P&lt;/span&gt;&lt;sub style=&quot;caret-color: rgb(247, 247, 247);&quot;&gt;watch&lt;/sub&gt;(3,&amp;nbsp;¬News) = 0.05&lt;/div&gt;&lt;/div&gt;" style="rounded=0;whiteSpace=wrap;html=1;fillColor=#CCCCCC;strokeColor=none;fontColor=#000000;fontFamily=Times New Roman;fontSize=14;" parent="1" vertex="1">
          <mxGeometry x="17" y="184" width="268" height="164" as="geometry" />
        </mxCell>
        <mxCell id="ILlvKbUS54B9NnVb6DW4-17" value="&lt;u&gt;&lt;b&gt;Quadrant 4 - News heavy (n=49)&lt;/b&gt;&lt;/u&gt;&lt;div&gt;&lt;u&gt;&lt;br&gt;&lt;/u&gt;&lt;/div&gt;&lt;div&gt;&lt;div style=&quot;text-align: left;&quot;&gt;&lt;b&gt;Account setup:&lt;/b&gt;&lt;/div&gt;&lt;div style=&quot;text-align: left;&quot;&gt;# News Follows = 10&lt;/div&gt;&lt;div&gt;&lt;div style=&quot;text-align: left;&quot;&gt;# Lifestyle Follows = 2&lt;/div&gt;&lt;div style=&quot;text-align: left;&quot;&gt;&lt;br&gt;&lt;/div&gt;&lt;div style=&quot;text-align: left;&quot;&gt;&lt;b&gt;Viewing protocol:&lt;/b&gt;&lt;/div&gt;&lt;div style=&quot;text-align: left;&quot;&gt;&lt;span style=&quot;caret-color: rgb(247, 247, 247);&quot;&gt;P&lt;/span&gt;&lt;sub style=&quot;caret-color: rgb(247, 247, 247);&quot;&gt;watch&lt;/sub&gt;(4, News) = 0.95&lt;br&gt;&lt;/div&gt;&lt;/div&gt;&lt;div style=&quot;text-align: left;&quot;&gt;&lt;span style=&quot;caret-color: rgb(247, 247, 247);&quot;&gt;P&lt;/span&gt;&lt;sub style=&quot;caret-color: rgb(247, 247, 247);&quot;&gt;watch&lt;/sub&gt;(4,&amp;nbsp;¬News) = 0.05&lt;/div&gt;&lt;/div&gt;" style="rounded=0;whiteSpace=wrap;html=1;fillColor=#FDBF6F;strokeColor=none;fontColor=#000000;fontFamily=Times New Roman;fontSize=14;" parent="1" vertex="1">
          <mxGeometry x="284" y="184" width="268" height="164" as="geometry" />
        </mxCell>
        <mxCell id="ILlvKbUS54B9NnVb6DW4-18" value="Empirical Details" style="text;html=1;align=center;verticalAlign=middle;whiteSpace=wrap;rounded=0;fontFamily=Times New Roman;fontSize=16;fontStyle=1" parent="1" vertex="1">
          <mxGeometry x="189" y="351" width="190" height="30" as="geometry" />
        </mxCell>
      </root>
    </mxGraphModel>
  </diagram>
</mxfile>
